<?xml version="1.0" encoding="UTF-8" standalone="no"?>
<svg
   xmlns:dc="http://purl.org/dc/elements/1.1/"
   xmlns:cc="http://creativecommons.org/ns#"
   xmlns:rdf="http://www.w3.org/1999/02/22-rdf-syntax-ns#"
   xmlns:svg="http://www.w3.org/2000/svg"
   xmlns="http://www.w3.org/2000/svg"
   xmlns:sodipodi="http://sodipodi.sourceforge.net/DTD/sodipodi-0.dtd"
   xmlns:inkscape="http://www.inkscape.org/namespaces/inkscape"
   width="299.20959"
   height="330.69836"
   viewBox="0 0 299.20959 330.69836"
   version="1.1"
   preserveAspectRatio="xMidYMid"
   id="svg144"
   sodipodi:docname="vim-safe.svg"
   inkscape:version="0.92.4 (unknown)"
   inkscape:export-filename="/home/antenore/software/vim-safe/data/icons/vim-safe.png"
   inkscape:export-xdpi="96"
   inkscape:export-ydpi="96">
  <metadata
     id="metadata150">
    <rdf:RDF>
      <cc:Work
         rdf:about="">
        <dc:format>image/svg+xml</dc:format>
        <dc:type
           rdf:resource="http://purl.org/dc/dcmitype/StillImage" />
        <dc:title></dc:title>
      </cc:Work>
    </rdf:RDF>
  </metadata>
  <defs
     id="defs148">
    <filter
       inkscape:label="Button"
       inkscape:menu="Bevels"
       inkscape:menu-tooltip="Soft bevel, slightly depressed middle"
       style="color-interpolation-filters:sRGB"
       id="filter1224">
      <feGaussianBlur
         stdDeviation="2.3"
         in="SourceAlpha"
         result="result0"
         id="feGaussianBlur1198" />
      <feMorphology
         in="SourceAlpha"
         radius="6.6"
         result="result1"
         id="feMorphology1200" />
      <feGaussianBlur
         stdDeviation="8.9"
         in="result1"
         id="feGaussianBlur1202" />
      <feColorMatrix
         values="1 0 0 0 0 0 1 0 0 0 0 0 1 0 0 0 0 0 0.3 0"
         result="result91"
         id="feColorMatrix1204" />
      <feComposite
         in="result0"
         operator="out"
         result="result2"
         in2="result91"
         id="feComposite1206" />
      <feGaussianBlur
         stdDeviation="1.7"
         result="result4"
         id="feGaussianBlur1208" />
      <feDiffuseLighting
         surfaceScale="10"
         id="feDiffuseLighting1212">
        <feDistantLight
           azimuth="225"
           elevation="45"
           id="feDistantLight1210" />
      </feDiffuseLighting>
      <feBlend
         in2="SourceGraphic"
         mode="multiply"
         id="feBlend1214" />
      <feComposite
         in2="SourceAlpha"
         operator="in"
         result="result3"
         id="feComposite1216" />
      <feSpecularLighting
         in="result4"
         surfaceScale="5"
         specularExponent="17.89999962"
         id="feSpecularLighting1220">
        <feDistantLight
           azimuth="225"
           elevation="45"
           id="feDistantLight1218" />
      </feSpecularLighting>
      <feComposite
         in2="result3"
         operator="atop"
         id="feComposite1222" />
    </filter>
  </defs>
  <sodipodi:namedview
     pagecolor="#ffffff"
     bordercolor="#666666"
     borderopacity="0"
     objecttolerance="10"
     gridtolerance="10"
     guidetolerance="10"
     inkscape:pageopacity="0"
     inkscape:pageshadow="2"
     inkscape:window-width="945"
     inkscape:window-height="1060"
     id="namedview146"
     showgrid="false"
     inkscape:zoom="0.59223632"
     inkscape:cx="146.90967"
     inkscape:cy="168.26804"
     inkscape:window-x="2885"
     inkscape:window-y="10"
     inkscape:window-maximized="0"
     inkscape:current-layer="g142"
     fit-margin-top="0"
     fit-margin-left="0"
     fit-margin-right="0"
     fit-margin-bottom="0"
     inkscape:showpageshadow="false" />
  <g
     id="g142"
     transform="translate(21.219291,34.735759)">
    <g
       transform="matrix(0.82294662,0,0,0.78147574,-16.718101,-7.177563)"
       id="g391">
      <g
         id="g338" />
      <g
         id="g340" />
      <g
         id="g342" />
      <g
         id="g344" />
      <g
         id="g346" />
      <g
         id="g348" />
      <g
         id="g350" />
      <g
         id="g352" />
      <g
         id="g354" />
      <g
         id="g356" />
      <g
         id="g358" />
      <g
         id="g360" />
      <g
         id="g362" />
      <g
         id="g364" />
      <g
         id="g366" />
    </g>
    <path
       id="path106"
       d=""
       inkscape:connector-curvature="0"
       style="fill:#45fe02" />
    <g
       id="g178"
       transform="matrix(0.28575199,0,0,0.23346515,350.42106,68.111874)" />
    <g
       id="g180"
       transform="matrix(0.28575199,0,0,0.23346515,350.42106,68.111874)" />
    <g
       id="g182"
       transform="matrix(0.28575199,0,0,0.23346515,350.42106,68.111874)" />
    <g
       id="g184"
       transform="matrix(0.28575199,0,0,0.23346515,350.42106,68.111874)" />
    <g
       id="g186"
       transform="matrix(0.28575199,0,0,0.23346515,350.42106,68.111874)" />
    <g
       id="g188"
       transform="matrix(0.28575199,0,0,0.23346515,350.42106,68.111874)" />
    <g
       id="g190"
       transform="matrix(0.28575199,0,0,0.23346515,350.42106,68.111874)" />
    <g
       id="g192"
       transform="matrix(0.28575199,0,0,0.23346515,350.42106,68.111874)" />
    <g
       id="g194"
       transform="matrix(0.28575199,0,0,0.23346515,350.42106,68.111874)" />
    <g
       id="g196"
       transform="matrix(0.28575199,0,0,0.23346515,350.42106,68.111874)" />
    <g
       id="g198"
       transform="matrix(0.28575199,0,0,0.23346515,350.42106,68.111874)" />
    <g
       id="g200"
       transform="matrix(0.28575199,0,0,0.23346515,350.42106,68.111874)" />
    <g
       id="g202"
       transform="matrix(0.28575199,0,0,0.23346515,350.42106,68.111874)" />
    <g
       id="g204"
       transform="matrix(0.28575199,0,0,0.23346515,350.42106,68.111874)" />
    <g
       id="g206"
       transform="matrix(0.28575199,0,0,0.23346515,350.42106,68.111874)" />
    <g
       id="g951"
       transform="matrix(0.85386777,0,0,0.77566298,18.761261,29.301425)">
      <path
         id="path336"
         d="M 324.478,51.943 177.986,0.285 c -1.076,-0.38 -2.25,-0.38 -3.326,0 L 28.166,51.943 c -1.999,0.705 -3.337,2.595 -3.337,4.715 0,52.278 13.834,112.711 37.956,165.805 19.566,43.069 54.751,100.519 111.248,129.625 0.719,0.37 1.504,0.555 2.29,0.555 0.786,0 1.571,-0.185 2.29,-0.555 56.496,-29.106 91.68,-86.556 111.247,-129.625 24.121,-53.094 37.955,-113.527 37.955,-165.805 0,-2.12 -1.338,-4.01 -3.337,-4.715 z"
         inkscape:connector-curvature="0"
         style="fill:#019833;fill-opacity:1;filter:url(#filter1224)"
         transform="matrix(0.82294662,0,0,0.78147574,-16.718101,-7.177563)" />
      <path
         style="fill:#000000;stroke-width:0.98949641"
         inkscape:connector-curvature="0"
         id="path112"
         d="M 60.5781,242.06144 H 37.12129 l -9.160556,-9.40042 V 53.158423 h -7.270589 l -6.224356,-6.56344 v -20.065 l 6.448067,-7.364578 h 82.035194 l 7.37569,7.775809 v 19.044538 l -6.12889,7.866179 H 97.997525 V 114.52924 L 156.32327,53.851931 h -3.25634 L 146.2833,46.148214 V 25.954261 l 6.66503,-6.442611 h 82.80371 l 6.55317,6.909687 V 45.520706 L 60.5781,242.06144" />
      <path
         style="fill:#fefefe;stroke-width:0.98949641"
         inkscape:connector-curvature="0"
         id="path116"
         d="m 101.89607,31.014933 3.64397,-2.478551 -3.72304,-4.069659 H 22.904107 l -4.009431,4.228058 v 15.992295 l 4.445281,4.687012 2.120427,-4.687012 -2.788666,-2.941567 V 30.471703 l 2.0915,-1.960706 74.503285,0.09646 2.629567,2.407475" />
      <path
         style="fill:#fefefe;stroke-width:0.98949641"
         inkscape:connector-curvature="0"
         id="path118"
         d="M 37.659353,44.307323 V 231.47708 l 2.499385,2.50597 -2.002787,3.98538 -5.256231,-5.4516 V 49.159842 l 4.759633,-4.852519" />
      <path
         style="fill:#808080;stroke-width:0.98949641"
         inkscape:connector-curvature="0"
         id="path120"
         d="m 24.909787,44.307323 -1.56983,5.066765 h 9.532764 l 5.514655,-5.066765 H 24.909787" />
      <path
         style="fill:#fefefe;stroke-width:0.98949641"
         inkscape:connector-curvature="0"
         id="path122"
         d="M 158.26338,44.372307 154.9299,41.89274 V 31.844502 l 3.4868,-3.676705 h 72.75313 l 2.78963,3.921413 3.9699,-3.298982 -4.08657,-3.931566 h -78.21572 l -3.89372,4.105196 v 16.115156 l 4.10007,3.907197 M 92.562905,126.47015 84.965429,145.90866 170.73523,55.225745 170.31578,44.255538 92.562905,126.47015" />
      <path
         style="fill:#808080;stroke-width:0.98949641"
         inkscape:connector-curvature="0"
         id="path124"
         d="m 101.72443,30.942841 3.81561,-2.406459 v 15.770941 l -4.35561,4.592581 h -8.464349 l -0.157176,77.570246 -7.568548,19.39383 V 44.307323 h 14.13522 l 2.629563,-2.253137 -0.0347,-11.111345" />
      <path
         style="fill:#808080;stroke-width:0.98949641"
         inkscape:connector-curvature="0"
         id="path126"
         d="m 233.70104,30.994626 4.22832,-2.204398 V 43.191416 L 57.86079,237.96843 H 38.155951 l 1.922753,-3.828 15.134203,0.001 178.514173,-194.356647 -0.026,-8.790177" />
      <path
         style="fill:#808080;stroke-width:0.98949641"
         inkscape:connector-curvature="0"
         id="path128"
         d="m 170.31578,44.255538 -4.3855,4.639289 -10.09686,0.09138 2.46564,-4.660611 c 0.082,0 12.01672,-0.07006 12.01672,-0.07006" />
      <path
         style="fill:#cccccc;stroke-width:0.98949641"
         inkscape:connector-curvature="0"
         id="path130"
         d="m 157.72532,28.017521 -2.78674,2.937505 v 10.787437 l 2.44056,2.572983 h 12.89421 V 54.738361 L 84.974107,145.90256 V 44.4444 h 14.17572 l 2.908233,-3.066459 V 30.461549 L 99.373537,28.274413 H 24.771896 l -2.440565,2.573998 v 11.150944 l 2.481065,2.616644 H 37.788565 V 231.44865 l 2.440565,2.57298 H 54.974732 L 233.72997,39.532988 v -8.577962 l -2.78674,-2.937505 h -73.21791" />
      <path
         style="fill:#808080;stroke-width:0.98949641"
         inkscape:connector-curvature="0"
         id="path132"
         d="M 55.075016,234.2704 H 40.131738 l -2.578455,-2.7192 V 44.863753 H 24.715005 L 22.09605,42.101909 V 30.744841 l 2.578455,-2.718182 h 74.780031 l 2.839774,2.313044 v 11.140791 l -3.046128,3.211659 H 85.209389 V 145.2974 L 170.03807,54.635807 V 44.564215 H 157.28175 L 154.7033,41.845017 V 30.852472 l 2.92366,-3.083721 h 73.41366 l 2.92463,3.083721 v 8.781039 l -0.0656,0.07209 z M 40.327485,233.77388 H 54.875412 L 233.49469,39.433481 V 31.05758 l -2.64885,-2.792306 h -73.02313 l -2.64885,2.792306 v 10.58233 l 2.30267,2.427782 h 13.03307 v 10.772207 l -0.0675,0.07209 -85.703274,91.595741 V 44.196646 h 14.31361 l 2.770344,-2.922275 V 30.583395 L 99.293503,28.522166 H 24.869288 l -2.302675,2.428798 v 10.945838 l 2.344138,2.471444 H 38.023846 V 231.34508 Z" />
      <path
         id="path158"
         d="m 169.86499,161.72256 c 0,-10.19111 10.59419,-18.48266 23.61575,-18.48266 13.02156,0 23.61575,8.29155 23.61575,18.48266 v 15.12281 h 12.88125 v -15.12281 c 2.8e-4,-15.75007 -16.37243,-28.56417 -36.497,-28.56417 -20.12458,0 -36.49728,12.8141 -36.49728,28.56417 v 15.12281 h 12.88125 v -15.12281 z"
         style="fill:#c3c3c7;stroke-width:0.24483228"
         inkscape:connector-curvature="0" />
      <path
         id="path176"
         d="m 156.98346,161.72299 v 15.12238 h 12.88125 v -15.12238 c 0,-10.19154 10.5942,-18.48287 23.61575,-18.48287 v -10.08173 c -20.1243,0 -36.497,12.8141 -36.497,28.5646 z"
         style="fill:#a9a8ae;stroke-width:0.24483228"
         inkscape:connector-curvature="0" />
      <path
         inkscape:connector-curvature="0"
         style="fill:#ff5555;stroke-width:0.1280669"
         d="m 190.18866,174.85038 c -0.9769,0 -1.76822,2.25709 -1.76822,5.04101 v 57.12904 c 0,2.78392 0.79132,5.04101 1.76822,5.04101 h 11.793 l 13.43179,-0.27724 13.38064,0.27724 h 11.74812 c 0.97325,0 1.763,-2.25709 1.763,-5.04101 v -57.12904 c 0,-2.78392 -0.78975,-5.04101 -1.763,-5.04101 h -1.76196 -3.52392 -6.46224 -6.4612 -3.52496 l -3.39448,0.18663 -3.40805,-0.18663 h -3.53853 -6.48521 -6.48625 -3.53749 z"
         id="SVGCleanerId_0" />
      <path
         inkscape:connector-curvature="0"
         id="SVGCleanerId_0-6"
         d="m 146.29229,174.72468 c -0.8834,0 -1.59782,2.25571 -1.59782,5.03963 v 57.12915 c 0,2.78392 0.71442,5.04328 1.59782,5.04328 h 10.66305 l 0.16049,-0.004 h 23.92708 l 0.16052,0.004 h 10.6229 c 0.004,0 0.007,-0.004 0.0109,-0.004 h 1.54308 v -4.40466 c 0.009,-0.21729 0.0401,-0.40987 0.0401,-0.63497 v -57.12915 c 0,-0.22551 -0.031,-0.41729 -0.0401,-0.63497 v -4.26233 h -1.19288 c -0.1167,-0.086 -0.2362,-0.14233 -0.36115,-0.14233 h -1.59418 -3.18468 -5.84405 -5.84406 -3.18469 l -2.34929,0.14233 h -1.44825 l -2.35659,-0.14233 h -3.19926 -5.86593 -5.86232 -3.19927 z"
         style="fill:#ff0000;stroke-width:0.12178456" />
      <path
         id="path156"
         d="m 204.20154,207.537 c -0.0169,-0.25364 -0.0498,-0.50381 -0.0949,-0.75116 -0.0374,-0.20728 -0.0847,-0.4124 -0.14114,-0.6147 -0.90303,-3.22751 -4.18056,-5.76777 -8.32403,-6.43315 -0.0235,-0.004 -0.0473,-0.006 -0.0714,-0.0102 -0.50064,-0.0775 -1.01373,-0.12909 -1.53761,-0.14989 -0.10877,-0.004 -0.21863,-0.005 -0.32767,-0.007 -0.0747,-0.001 -0.14889,-0.004 -0.22362,-0.004 0,0 0,0 -5.5e-4,0 -5.91909,0 -10.73451,3.76879 -10.73451,8.40136 0,2.74277 1.68872,5.1823 4.29375,6.71646 v 6.72621 c 0,2.78392 2.88372,5.04086 6.44076,5.04086 5.5e-4,0 5.5e-4,0 5.5e-4,0 0.15581,0 0.30885,-0.01 0.4619,-0.0182 0.0648,-0.004 0.13173,-0.003 0.19621,-0.008 0.0924,-0.007 0.1821,-0.0221 0.27315,-0.0325 3.11425,-0.35414 5.50895,-2.44647 5.50895,-4.98195 v -6.72577 c 2.60503,-1.53416 4.29375,-3.97391 4.29375,-6.71646 2.8e-4,-0.14512 -0.004,-0.28894 -0.0136,-0.43211 z"
         style="fill:#77757f;stroke-width:0.24483228"
         inkscape:connector-curvature="0" />
      <path
         id="path160"
         d="m 193.48114,199.56688 c 0,0 0,0 -5.5e-4,0 -5.91909,0 -10.73451,3.76879 -10.73451,8.40136 0,2.74277 1.68872,5.1823 4.29375,6.71646 v 6.72577 c 0,2.78392 2.88372,5.04087 6.44076,5.04087 5.5e-4,0 5.5e-4,0 5.5e-4,0 z"
         style="fill:#57575c;stroke-width:0.24483228"
         inkscape:connector-curvature="0" />
    </g>
  </g>
</svg>
