<?xml version="1.0" encoding="UTF-8" standalone="no"?>
<svg
   xmlns:dc="http://purl.org/dc/elements/1.1/"
   xmlns:cc="http://creativecommons.org/ns#"
   xmlns:rdf="http://www.w3.org/1999/02/22-rdf-syntax-ns#"
   xmlns:svg="http://www.w3.org/2000/svg"
   xmlns="http://www.w3.org/2000/svg"
   xmlns:sodipodi="http://sodipodi.sourceforge.net/DTD/sodipodi-0.dtd"
   xmlns:inkscape="http://www.inkscape.org/namespaces/inkscape"
   width="299.20959"
   height="330.69836"
   viewBox="0 0 299.20959 330.69836"
   version="1.1"
   preserveAspectRatio="xMidYMid"
   id="svg144"
   sodipodi:docname="vim-safe.svg"
   inkscape:version="0.92.4 (unknown)">
  <metadata
     id="metadata150">
    <rdf:RDF>
      <cc:Work
         rdf:about="">
        <dc:format>image/svg+xml</dc:format>
        <dc:type
           rdf:resource="http://purl.org/dc/dcmitype/StillImage" />
        <dc:title></dc:title>
      </cc:Work>
    </rdf:RDF>
  </metadata>
  <defs
     id="defs148">
    <filter
       inkscape:label="Button"
       inkscape:menu="Bevels"
       inkscape:menu-tooltip="Soft bevel, slightly depressed middle"
       style="color-interpolation-filters:sRGB"
       id="filter1224">
      <feGaussianBlur
         stdDeviation="2.3"
         in="SourceAlpha"
         result="result0"
         id="feGaussianBlur1198" />
      <feMorphology
         in="SourceAlpha"
         radius="6.6"
         result="result1"
         id="feMorphology1200" />
      <feGaussianBlur
         stdDeviation="8.9"
         in="result1"
         id="feGaussianBlur1202" />
      <feColorMatrix
         values="1 0 0 0 0 0 1 0 0 0 0 0 1 0 0 0 0 0 0.3 0"
         result="result91"
         id="feColorMatrix1204" />
      <feComposite
         in="result0"
         operator="out"
         result="result2"
         in2="result91"
         id="feComposite1206" />
      <feGaussianBlur
         stdDeviation="1.7"
         result="result4"
         id="feGaussianBlur1208" />
      <feDiffuseLighting
         surfaceScale="10"
         id="feDiffuseLighting1212">
        <feDistantLight
           azimuth="225"
           elevation="45"
           id="feDistantLight1210" />
      </feDiffuseLighting>
      <feBlend
         in2="SourceGraphic"
         mode="multiply"
         id="feBlend1214" />
      <feComposite
         in2="SourceAlpha"
         operator="in"
         result="result3"
         id="feComposite1216" />
      <feSpecularLighting
         in="result4"
         surfaceScale="5"
         specularExponent="17.89999962"
         id="feSpecularLighting1220">
        <feDistantLight
           azimuth="225"
           elevation="45"
           id="feDistantLight1218" />
      </feSpecularLighting>
      <feComposite
         in2="result3"
         operator="atop"
         id="feComposite1222" />
    </filter>
  </defs>
  <sodipodi:namedview
     pagecolor="#ffffff"
     bordercolor="#666666"
     borderopacity="0"
     objecttolerance="10"
     gridtolerance="10"
     guidetolerance="10"
     inkscape:pageopacity="0"
     inkscape:pageshadow="2"
     inkscape:window-width="1900"
     inkscape:window-height="1060"
     id="namedview146"
     showgrid="false"
     inkscape:zoom="0.59223632"
     inkscape:cx="229.2547"
     inkscape:cy="168.26804"
     inkscape:window-x="1930"
     inkscape:window-y="10"
     inkscape:window-maximized="0"
     inkscape:current-layer="g142"
     fit-margin-top="0"
     fit-margin-left="0"
     fit-margin-right="0"
     fit-margin-bottom="0"
     inkscape:showpageshadow="false" />
  <g
     id="g142"
     transform="translate(21.219291,34.735759)">
    <g
       transform="matrix(0.82294662,0,0,0.78147574,-16.718101,-7.177563)"
       id="g391">
      <path
         style="fill:#019833;fill-opacity:1;filter:url(#filter1224)"
         inkscape:connector-curvature="0"
         d="M 324.478,51.943 177.986,0.285 c -1.076,-0.38 -2.25,-0.38 -3.326,0 L 28.166,51.943 c -1.999,0.705 -3.337,2.595 -3.337,4.715 0,52.278 13.834,112.711 37.956,165.805 19.566,43.069 54.751,100.519 111.248,129.625 0.719,0.37 1.504,0.555 2.29,0.555 0.786,0 1.571,-0.185 2.29,-0.555 56.496,-29.106 91.68,-86.556 111.247,-129.625 24.121,-53.094 37.955,-113.527 37.955,-165.805 0,-2.12 -1.338,-4.01 -3.337,-4.715 z"
         id="path336" />
      <g
         id="g338">
</g>
      <g
         id="g340">
</g>
      <g
         id="g342">
</g>
      <g
         id="g344">
</g>
      <g
         id="g346">
</g>
      <g
         id="g348">
</g>
      <g
         id="g350">
</g>
      <g
         id="g352">
</g>
      <g
         id="g354">
</g>
      <g
         id="g356">
</g>
      <g
         id="g358">
</g>
      <g
         id="g360">
</g>
      <g
         id="g362">
</g>
      <g
         id="g364">
</g>
      <g
         id="g366">
</g>
    </g>
    <path
       id="path106"
       d=""
       inkscape:connector-curvature="0"
       style="fill:#45fe02" />
    <g
       id="g178"
       transform="matrix(0.28575199,0,0,0.23346515,350.42106,68.111874)">
</g>
    <g
       id="g180"
       transform="matrix(0.28575199,0,0,0.23346515,350.42106,68.111874)">
</g>
    <g
       id="g182"
       transform="matrix(0.28575199,0,0,0.23346515,350.42106,68.111874)">
</g>
    <g
       id="g184"
       transform="matrix(0.28575199,0,0,0.23346515,350.42106,68.111874)">
</g>
    <g
       id="g186"
       transform="matrix(0.28575199,0,0,0.23346515,350.42106,68.111874)">
</g>
    <g
       id="g188"
       transform="matrix(0.28575199,0,0,0.23346515,350.42106,68.111874)">
</g>
    <g
       id="g190"
       transform="matrix(0.28575199,0,0,0.23346515,350.42106,68.111874)">
</g>
    <g
       id="g192"
       transform="matrix(0.28575199,0,0,0.23346515,350.42106,68.111874)">
</g>
    <g
       id="g194"
       transform="matrix(0.28575199,0,0,0.23346515,350.42106,68.111874)">
</g>
    <g
       id="g196"
       transform="matrix(0.28575199,0,0,0.23346515,350.42106,68.111874)">
</g>
    <g
       id="g198"
       transform="matrix(0.28575199,0,0,0.23346515,350.42106,68.111874)">
</g>
    <g
       id="g200"
       transform="matrix(0.28575199,0,0,0.23346515,350.42106,68.111874)">
</g>
    <g
       id="g202"
       transform="matrix(0.28575199,0,0,0.23346515,350.42106,68.111874)">
</g>
    <g
       id="g204"
       transform="matrix(0.28575199,0,0,0.23346515,350.42106,68.111874)">
</g>
    <g
       id="g206"
       transform="matrix(0.28575199,0,0,0.23346515,350.42106,68.111874)">
</g>
    <g
       id="g1321"
       transform="matrix(0.96426907,0,0,1.0153838,-2.3173146,7.9230751)">
      <g
         id="g1298">
        <path
           d="M 65.226,230.591 H 40.9 l -9.5,-9.258 V 44.55 H 23.86 L 17.405,38.086 V 18.325 l 6.687,-7.253 h 85.075 l 7.649,7.658 v 18.756 l -6.356,7.747 h -6.428 v 59.758 l 60.487,-59.758 h -3.377 l -7.035,-7.587 V 17.758 l 6.912,-6.345 h 85.872 l 6.796,6.805 v 18.81 L 65.226,230.591"
           id="path112"
           inkscape:connector-curvature="0"
           style="fill:#000000" />
        <path
           d="m 108.075,22.742 3.779,-2.441 -3.861,-4.008 H 26.156 l -4.158,4.164 v 15.75 l 4.61,4.616 2.199,-4.616 -2.892,-2.897 V 22.207 l 2.169,-1.931 77.264,0.095 2.727,2.371"
           id="path116"
           inkscape:connector-curvature="0"
           style="fill:#fefefe" />
        <path
           d="m 41.458,35.833 v 184.334 l 2.592,2.468 -2.077,3.925 -5.451,-5.369 V 40.612 l 4.936,-4.779"
           id="path118"
           inkscape:connector-curvature="0"
           style="fill:#fefefe" />
        <path
           d="m 28.236,35.833 -1.628,4.99 h 9.886 l 5.719,-4.99 H 28.236"
           id="path120"
           inkscape:connector-curvature="0"
           style="fill:#808080" />
        <path
           d="m 166.531,35.897 -3.457,-2.442 v -9.896 l 3.616,-3.621 h 75.449 l 2.893,3.862 4.117,-3.249 -4.238,-3.872 h -81.114 l -4.038,4.043 v 15.871 l 4.252,3.848 m -65.615,76.31 -7.879,19.144 88.948,-89.309 -0.435,-10.804 -80.634,80.969"
           id="path122"
           inkscape:connector-curvature="0"
           style="fill:#fefefe" />
        <path
           d="m 107.897,22.671 3.957,-2.37 v 15.532 l -4.517,4.523 h -8.778 l -0.163,76.395 -7.849,19.1 V 35.833 h 14.659 l 2.727,-2.219 -0.036,-10.943"
           id="path124"
           inkscape:connector-curvature="0"
           style="fill:#808080" />
        <path
           d="m 244.764,22.722 4.385,-2.171 V 34.734 L 62.408,226.56 H 41.973 l 1.994,-3.77 15.695,0.001 185.129,-191.412 -0.027,-8.657"
           id="path126"
           inkscape:connector-curvature="0"
           style="fill:#808080" />
        <path
           d="m 179.03,35.782 -4.548,4.569 -10.471,0.09 2.557,-4.59 c 0.085,0 12.462,-0.069 12.462,-0.069"
           id="path128"
           inkscape:connector-curvature="0"
           style="fill:#808080" />
        <path
           d="m 165.973,19.79 -2.89,2.893 v 10.624 l 2.531,2.534 h 13.372 v 10.265 l -88.46,89.783 V 35.968 h 14.701 l 3.016,-3.02 V 22.197 l -2.784,-2.154 H 28.093 l -2.531,2.535 V 33.56 l 2.573,2.577 h 13.457 v 184.002 l 2.531,2.534 H 59.415 L 244.794,31.131 v -8.448 l -2.89,-2.893 h -75.931"
           id="path130"
           inkscape:connector-curvature="0"
           style="fill:#cccccc" />
        <path
           d="M 59.519,222.918 H 44.022 L 41.348,220.24 V 36.381 H 28.034 l -2.716,-2.72 V 22.476 l 2.674,-2.677 h 77.551 l 2.945,2.278 v 10.972 l -3.159,3.163 H 90.77 v 99.081 l 87.972,-89.288 v -9.919 h -13.229 l -2.674,-2.678 V 22.582 l 3.032,-3.037 h 76.134 l 3.033,3.037 v 8.648 l -0.068,0.071 z M 44.225,222.429 H 59.312 L 244.55,31.033 v -8.249 l -2.747,-2.75 h -75.729 l -2.747,2.75 v 10.422 l 2.388,2.391 h 13.516 v 10.609 l -0.07,0.071 -88.879,90.208 V 35.724 h 14.844 l 2.873,-2.878 V 22.317 l -2.623,-2.03 H 28.194 l -2.388,2.392 v 10.78 l 2.431,2.434 h 13.599 v 184.144 z"
           id="path132"
           inkscape:connector-curvature="0"
           style="fill:#808080" />
      </g>
      <g
         id="g334"
         transform="matrix(0.55349406,0,0,0.4296022,179.6642,315.97551)">
        <g
           transform="matrix(0.51852966,0,0,0.4965418,-300.99192,-179.06982)"
           id="g296">
          <g
             id="g287"
             transform="translate(405.96629,-542.43058)">
            <path
               inkscape:connector-curvature="0"
               style="fill:#c3c3c7"
               d="m 170.667,131.877 c 0,-47.051 38.281,-85.332 85.333,-85.332 47.052,0 85.333,38.281 85.333,85.332 v 69.82 h 46.545 v -69.82 C 387.879,59.161 328.718,0 256,0 183.282,0 124.121,59.161 124.121,131.877 v 69.82 h 46.545 v -69.82 z"
               id="path158" />
            <path
               inkscape:connector-curvature="0"
               style="fill:#a9a8ae"
               d="m 124.121,131.879 v 69.818 h 46.545 v -69.818 c 0,-47.053 38.281,-85.333 85.333,-85.333 V 0 C 183.282,0 124.121,59.161 124.121,131.879 Z"
               id="path176" />
          </g>
          <path
             inkscape:connector-curvature="0"
             style="fill:#ff5555;stroke-width:0.52308011"
             d="m 650.07073,-349.94416 c -3.52992,0 -6.38927,10.42069 -6.38927,23.27368 v 263.757249 c 0,12.853001 2.85935,23.273683 6.38927,23.273683 h 42.61275 l 48.53433,-1.279968 48.34952,1.279968 h 42.45056 c 3.51675,0 6.37042,-10.420682 6.37042,-23.273683 V -326.67048 c 0,-12.85299 -2.85367,-23.27368 -6.37042,-23.27368 h -6.36665 -12.73329 -23.35062 -23.34688 -12.73705 l -12.26559,0.86168 -12.31462,-0.86168 h -12.7861 -23.43361 -23.43739 -12.78231 z"
             id="SVGCleanerId_0" />
          <path
             inkscape:connector-curvature="0"
             id="SVGCleanerId_0-6"
             d="m 491.4559,-350.52447 c -3.19206,0 -5.77354,10.4143 -5.77354,23.2673 v 263.757748 c 0,12.852994 2.58148,23.284142 5.77354,23.284142 h 38.52977 l 0.57993,-0.01685 h 86.45795 l 0.58,0.01685 h 38.38474 c 0.0136,0 0.0259,-0.01647 0.0395,-0.01685 h 5.57579 v -20.335716 c 0.0327,-1.003207 0.14497,-1.892349 0.14497,-2.931579 V -327.25717 c 0,-1.04116 -0.11217,-1.92659 -0.14497,-2.93158 v -19.67864 h -4.31036 c -0.42168,-0.39722 -0.85347,-0.65708 -1.30498,-0.65708 h -5.76038 -11.50752 -21.11684 -21.1169 -11.50752 l -8.48892,0.65708 h -5.23308 l -8.5153,-0.65708 H 551.1816 529.98567 508.80283 497.24259 Z"
             style="fill:#ff0000;stroke-width:0.49742037" />
          <g
             id="g283"
             transform="translate(257.63675,-842.5755)">
            <path
               inkscape:connector-curvature="0"
               style="fill:#77757f"
               d="m 443.06802,643.54116 c -0.061,-1.171 -0.18,-2.326 -0.343,-3.468 -0.135,-0.957 -0.306,-1.904 -0.51,-2.838 -3.263,-14.901 -15.106,-26.629 -30.078,-29.701 -0.085,-0.017 -0.171,-0.029 -0.258,-0.047 -1.809,-0.358 -3.663,-0.596 -5.556,-0.692 -0.393,-0.02 -0.79,-0.022 -1.184,-0.031 -0.27,-0.005 -0.538,-0.02 -0.808,-0.02 0,0 0,0 -0.002,0 -21.388,0 -38.788,17.4 -38.788,38.788 0,12.663 6.102,23.926 15.515,31.009 v 31.054 c 0,12.853 10.42,23.273 23.273,23.273 0.002,0 0.002,0 0.002,0 0.563,0 1.116,-0.045 1.669,-0.084 0.234,-0.017 0.476,-0.012 0.709,-0.036 0.334,-0.034 0.658,-0.102 0.987,-0.15 11.253,-1.635 19.906,-11.295 19.906,-23.001 v -31.052 c 9.413,-7.083 15.515,-18.347 15.515,-31.009 10e-4,-0.67 -0.016,-1.334 -0.049,-1.995 z"
               id="path156" />
            <path
               inkscape:connector-curvature="0"
               style="fill:#57575c"
               d="m 404.33102,606.74416 c 0,0 0,0 -0.002,0 -21.388,0 -38.788,17.4 -38.788,38.788 0,12.663 6.102,23.926 15.515,31.009 v 31.052 c 0,12.853 10.42,23.273 23.273,23.273 0.002,0 0.002,0 0.002,0 z"
               id="path160" />
          </g>
        </g>
      </g>
    </g>
  </g>
</svg>
